<mxfile host="app.diagrams.net" modified="2021-10-24T21:25:38.219Z" agent="5.0 (Macintosh)" etag="ivBIlwfgUMxqnQ5Nvn5-" version="15.5.8" type="github">
  <diagram id="v_eDVljZirTyYNURhXIr" name="Page-1">
    <mxGraphModel dx="2636" dy="986" grid="1" gridSize="10" guides="1" tooltips="1" connect="1" arrows="1" fold="1" page="1" pageScale="1" pageWidth="827" pageHeight="1169" math="0" shadow="0">
      <root>
        <mxCell id="0" />
        <mxCell id="1" parent="0" />
        <mxCell id="sLmnhVMK08JA9tZZFn_8-1" value="&lt;div&gt;Display ALL Recipes&lt;/div&gt;&lt;div&gt;Update and Display &lt;br&gt;&lt;/div&gt;&lt;div&gt;dropdownList&lt;br&gt;&lt;/div&gt;" style="rounded=0;whiteSpace=wrap;html=1;fillColor=#f5f5f5;fontColor=#333333;strokeColor=none;" vertex="1" parent="1">
          <mxGeometry x="341" y="20" width="146" height="70" as="geometry" />
        </mxCell>
        <mxCell id="sLmnhVMK08JA9tZZFn_8-3" value="" style="line;strokeWidth=4;direction=south;html=1;perimeter=backbonePerimeter;points=[];outlineConnect=0;" vertex="1" parent="1">
          <mxGeometry x="409" y="90" width="10" height="40" as="geometry" />
        </mxCell>
        <mxCell id="sLmnhVMK08JA9tZZFn_8-7" value="" style="line;strokeWidth=4;direction=south;html=1;perimeter=backbonePerimeter;points=[];outlineConnect=0;" vertex="1" parent="1">
          <mxGeometry x="409" y="230" width="10" height="60" as="geometry" />
        </mxCell>
        <mxCell id="sLmnhVMK08JA9tZZFn_8-8" value="&lt;div&gt;USER&lt;/div&gt;&lt;div&gt;Click Input &lt;br&gt;&lt;/div&gt;&lt;div&gt;Add Caracter&lt;br&gt;&lt;/div&gt;" style="rhombus;whiteSpace=wrap;html=1;fillColor=#a20025;fontColor=#ffffff;strokeColor=none;" vertex="1" parent="1">
          <mxGeometry x="351" y="120" width="126" height="120" as="geometry" />
        </mxCell>
        <mxCell id="sLmnhVMK08JA9tZZFn_8-9" value="" style="line;strokeWidth=2;html=1;" vertex="1" parent="1">
          <mxGeometry x="194" y="280" width="440" height="20" as="geometry" />
        </mxCell>
        <mxCell id="sLmnhVMK08JA9tZZFn_8-13" value="" style="line;strokeWidth=2;direction=south;html=1;" vertex="1" parent="1">
          <mxGeometry x="190" y="290" width="10" height="50" as="geometry" />
        </mxCell>
        <mxCell id="sLmnhVMK08JA9tZZFn_8-35" value="" style="edgeStyle=orthogonalEdgeStyle;rounded=0;orthogonalLoop=1;jettySize=auto;html=1;" edge="1" parent="1" source="sLmnhVMK08JA9tZZFn_8-14" target="sLmnhVMK08JA9tZZFn_8-24">
          <mxGeometry relative="1" as="geometry" />
        </mxCell>
        <mxCell id="sLmnhVMK08JA9tZZFn_8-14" value="Value &amp;gt; 2" style="rhombus;whiteSpace=wrap;html=1;fillColor=#a20025;fontColor=#ffffff;strokeColor=none;" vertex="1" parent="1">
          <mxGeometry x="132" y="320" width="126" height="120" as="geometry" />
        </mxCell>
        <mxCell id="sLmnhVMK08JA9tZZFn_8-16" value="" style="line;strokeWidth=2;direction=south;html=1;" vertex="1" parent="1">
          <mxGeometry x="628" y="290" width="10" height="50" as="geometry" />
        </mxCell>
        <mxCell id="sLmnhVMK08JA9tZZFn_8-17" value="Value &amp;lt; 3" style="rhombus;whiteSpace=wrap;html=1;fillColor=#a20025;fontColor=#ffffff;strokeColor=none;" vertex="1" parent="1">
          <mxGeometry x="570" y="320" width="126" height="120" as="geometry" />
        </mxCell>
        <mxCell id="sLmnhVMK08JA9tZZFn_8-23" style="edgeStyle=orthogonalEdgeStyle;rounded=0;orthogonalLoop=1;jettySize=auto;html=1;entryX=1;entryY=0.5;entryDx=0;entryDy=0;exitX=1;exitY=0.5;exitDx=0;exitDy=0;" edge="1" parent="1" source="sLmnhVMK08JA9tZZFn_8-17" target="sLmnhVMK08JA9tZZFn_8-1">
          <mxGeometry relative="1" as="geometry">
            <mxPoint x="900" y="380" as="sourcePoint" />
            <Array as="points">
              <mxPoint x="760" y="380" />
              <mxPoint x="760" y="55" />
            </Array>
          </mxGeometry>
        </mxCell>
        <mxCell id="sLmnhVMK08JA9tZZFn_8-26" value="" style="edgeStyle=orthogonalEdgeStyle;rounded=0;orthogonalLoop=1;jettySize=auto;html=1;" edge="1" parent="1" source="sLmnhVMK08JA9tZZFn_8-24" target="sLmnhVMK08JA9tZZFn_8-25">
          <mxGeometry relative="1" as="geometry" />
        </mxCell>
        <mxCell id="sLmnhVMK08JA9tZZFn_8-27" value="NON" style="edgeLabel;html=1;align=center;verticalAlign=middle;resizable=0;points=[];" vertex="1" connectable="0" parent="sLmnhVMK08JA9tZZFn_8-26">
          <mxGeometry x="0.025" y="3" relative="1" as="geometry">
            <mxPoint as="offset" />
          </mxGeometry>
        </mxCell>
        <mxCell id="sLmnhVMK08JA9tZZFn_8-29" value="" style="edgeStyle=orthogonalEdgeStyle;rounded=0;orthogonalLoop=1;jettySize=auto;html=1;" edge="1" parent="1" source="sLmnhVMK08JA9tZZFn_8-24" target="sLmnhVMK08JA9tZZFn_8-28">
          <mxGeometry relative="1" as="geometry" />
        </mxCell>
        <mxCell id="sLmnhVMK08JA9tZZFn_8-24" value="&lt;div&gt;GET Value&lt;/div&gt;&lt;div&gt;IF value is include in name or description or ingredient&lt;br&gt;&lt;/div&gt;" style="rounded=0;whiteSpace=wrap;html=1;fillColor=#f5f5f5;fontColor=#333333;strokeColor=none;" vertex="1" parent="1">
          <mxGeometry x="91" y="460" width="208" height="70" as="geometry" />
        </mxCell>
        <mxCell id="sLmnhVMK08JA9tZZFn_8-25" value="Display : NO" style="rounded=0;whiteSpace=wrap;html=1;fillColor=#f5f5f5;fontColor=#333333;strokeColor=none;" vertex="1" parent="1">
          <mxGeometry x="-197" y="460" width="208" height="70" as="geometry" />
        </mxCell>
        <mxCell id="sLmnhVMK08JA9tZZFn_8-32" value="" style="edgeStyle=orthogonalEdgeStyle;rounded=0;orthogonalLoop=1;jettySize=auto;html=1;" edge="1" parent="1" target="sLmnhVMK08JA9tZZFn_8-31">
          <mxGeometry relative="1" as="geometry">
            <mxPoint x="195" y="690" as="sourcePoint" />
          </mxGeometry>
        </mxCell>
        <mxCell id="sLmnhVMK08JA9tZZFn_8-34" value="" style="edgeStyle=orthogonalEdgeStyle;rounded=0;orthogonalLoop=1;jettySize=auto;html=1;" edge="1" parent="1" source="sLmnhVMK08JA9tZZFn_8-28" target="sLmnhVMK08JA9tZZFn_8-33">
          <mxGeometry relative="1" as="geometry" />
        </mxCell>
        <mxCell id="sLmnhVMK08JA9tZZFn_8-28" value="&lt;div&gt;Display recipe&lt;/div&gt;&lt;div&gt;and update Dropdown list&lt;br&gt;&lt;/div&gt;" style="whiteSpace=wrap;html=1;rounded=0;fontColor=#333333;strokeColor=none;fillColor=#f5f5f5;" vertex="1" parent="1">
          <mxGeometry x="97.5" y="570" width="195" height="60" as="geometry" />
        </mxCell>
        <mxCell id="sLmnhVMK08JA9tZZFn_8-37" style="edgeStyle=orthogonalEdgeStyle;rounded=0;orthogonalLoop=1;jettySize=auto;html=1;entryX=1;entryY=0.5;entryDx=0;entryDy=0;" edge="1" parent="1" source="sLmnhVMK08JA9tZZFn_8-31" target="sLmnhVMK08JA9tZZFn_8-33">
          <mxGeometry relative="1" as="geometry">
            <Array as="points">
              <mxPoint x="310" y="828" />
              <mxPoint x="310" y="700" />
            </Array>
          </mxGeometry>
        </mxCell>
        <mxCell id="sLmnhVMK08JA9tZZFn_8-31" value="&lt;div&gt;USER&lt;/div&gt;&lt;div&gt;Click on list&lt;br&gt;&lt;/div&gt;" style="rhombus;whiteSpace=wrap;html=1;rounded=0;fontColor=#ffffff;strokeColor=#6F0000;fillColor=#a20025;" vertex="1" parent="1">
          <mxGeometry x="127.5" y="770" width="135" height="115" as="geometry" />
        </mxCell>
        <mxCell id="sLmnhVMK08JA9tZZFn_8-39" value="" style="edgeStyle=orthogonalEdgeStyle;rounded=0;orthogonalLoop=1;jettySize=auto;html=1;" edge="1" parent="1" source="sLmnhVMK08JA9tZZFn_8-33" target="sLmnhVMK08JA9tZZFn_8-38">
          <mxGeometry relative="1" as="geometry" />
        </mxCell>
        <mxCell id="sLmnhVMK08JA9tZZFn_8-33" value="Creat a new Array" style="whiteSpace=wrap;html=1;rounded=0;fontColor=#333333;strokeColor=none;fillColor=#f5f5f5;" vertex="1" parent="1">
          <mxGeometry x="100" y="670" width="190" height="60" as="geometry" />
        </mxCell>
        <mxCell id="sLmnhVMK08JA9tZZFn_8-41" value="" style="edgeStyle=orthogonalEdgeStyle;rounded=0;orthogonalLoop=1;jettySize=auto;html=1;" edge="1" parent="1" source="sLmnhVMK08JA9tZZFn_8-38" target="sLmnhVMK08JA9tZZFn_8-40">
          <mxGeometry relative="1" as="geometry" />
        </mxCell>
        <mxCell id="sLmnhVMK08JA9tZZFn_8-38" value="&lt;div&gt;Display recipe&lt;/div&gt;&lt;div&gt;if list value is include in Ingredients, ustensiles or appareil&lt;br&gt;&lt;/div&gt;" style="whiteSpace=wrap;html=1;rounded=0;fontColor=#333333;strokeColor=none;fillColor=#f5f5f5;" vertex="1" parent="1">
          <mxGeometry x="-210" y="670" width="195" height="60" as="geometry" />
        </mxCell>
        <mxCell id="sLmnhVMK08JA9tZZFn_8-40" value="Creat a new Array" style="whiteSpace=wrap;html=1;rounded=0;fontColor=#333333;strokeColor=none;fillColor=#f5f5f5;" vertex="1" parent="1">
          <mxGeometry x="-172.5" y="810" width="120" height="60" as="geometry" />
        </mxCell>
      </root>
    </mxGraphModel>
  </diagram>
</mxfile>
